<svg xmlns="http://www.w3.org/2000/svg" enable-background="new 0 0 2100 2100" viewBox="0 0 2100 2100"><rect width="2100" height="2100" fill="#f3fafa" display="none" class="colorfff svgShape"/><path fill="#e1ffff" d="M1478.2,281.2c-58.8,16-145,31.3-255.1-10S757.5,152,463.4,447.6C165.5,747,116.5,1700.5,865,1747.5    c748.5,46.9,959.5-63.6,972-319.3c19.8-407.8-76.8-411.5-82-574.5c-3.6-114.6,109.2-202.7,55.5-391.7    C1755,266.6,1587.9,251.4,1478.2,281.2z" class="colorffe1ef svgShape"/><path fill="#184b40" d="M827.6,1208.9c0,0-42.4,97.2-111.1,123.4c-68.6,26.2-147.4-22.5-147.4-22.5l222.8-383.2l44.9,62.4    L827.6,1208.9z" class="color232047 svgShape"/><path fill="#285a4f" d="M1356.9,877.4c0,0-6-67.8-5.7-117.6c0.3-49.8,10-108.1,13.7-134.4c3.7-26.3,16.4-68.4,21.1-80.5    s4.5-65.5-6.5-114.1s-68.7-163.4-220.1-125.8c0,0-58.1-18-110.3,34.1C997,391.1,951.4,464.3,970,593.1    c18.5,128.8,3.5,245.6-20.6,300.3c-24.1,54.6-88.1,220.6-33.3,327.5c54.8,106.9,355.6,106.9,409,54.8S1392.7,1051.1,1356.9,877.4z    " class="color53285a svgShape"/><path fill="#1a6353" d="M956.6,886.4c0,0,41.4-74.2,45.9-128.2c4.5-54-10.5-166.1,6-215c16.5-49,78.2-111.9,100.2-125.2    s27.4-17.4,27.4-17.4l16.6-83.3c0,0,5.3,88.7,52,134.7c46.7,46,124.7,94,135.3,98c10.7,4-4.7,85.3-10.7,122s-6,184.7,0,210    S956.6,886.4,956.6,886.4z" class="color1a2d63 svgShape"/><path fill="#c4c6c6" d="M1040.2,886.4l187.5-8.5v-69c0,0-4.5-5.8-25.6-5.2c-21.1,0.6-137.3,8.1-137.3,8.1s-22.3,1.3-29.6,6.9    C1027.8,824.1,1040.2,886.4,1040.2,886.4z" class="colorc6c4c4 svgShape"/><path fill="#295a4f" d="M1480.3,978.6c-1.6,13.2-5.2,50-9.7,96.7c-3.1,32.3-6.6,69.4-10.2,106.6c-7.7,81.1-15.5,162.8-19.3,197.7    c-8,74.2,25.1,317.8,23.1,347.9c-2,30.1-10,31.1-25.1,34.1c-15,3-500.3,27.1-503.3,24.1c-1.9-1.9-8-140.8-13.5-245.2    c-2-39.1-4-73.3-5.6-93.8c-0.8-9.8-1.4-16.4-2-18.9c-5-22-114.3-85.3-120.3-112.3c-6-27,0-377.9,0-377.9l205.5-79.4l266.7-13.1    l14.7,1.6c0,0,61.5,15.7,101.6,32.8c40.1,17,82.2,37.8,87.2,43.5C1475.2,928.5,1485.3,936.5,1480.3,978.6z" class="color2f295a svgShape"/><path fill="#184b40" d="M1464.2,1727.5c-2,30.1-10,31.1-25.1,34.1c-15,3-500.3,27.1-503.3,24.1c-1.9-1.9-8-140.8-13.5-245.2    c2.8,3.9,5.6,8.6,8.2,14.2c19.5,42,82.5,72,120,70.7c37.5-1.3,111-10.7,109.5-27.2s-25.5-24-6-42c19.5-18,74.9-2.6,84.1-27.9    c9.2-25.3-40.6-24.6-41.5-42.6s179.5-52.5,192.3-106.5c12.9-54,44.7-207.7,44.7-207.7l26.9,10.5c-7.7,81.1-15.5,162.8-19.3,197.7    C1433.1,1453.8,1466.2,1697.4,1464.2,1727.5z" class="color232047 svgShape"/><polygon fill="#c4c6c6" points="986.2 984.8 1049.5 1315.4 1103 1440.6 1164.3 1392.6 1291.5 948.6 1297.3 850.9 1266.7 845" class="colorc6c4c4 svgShape"/><path fill="#f3fafa" d="M1092.5,1041.6l9,8c0,0-10,70-9,103s15,122.9,15,122.9l7.4,148.2l-17.4-34c0,0-5-111-11-141s-11-101-10-116    S1092.5,1041.6,1092.5,1041.6z" class="colorfff svgShape"/><path fill="#fbd8a8" d="M1227.6,839.9l-54.1,135.7l-70.2,49.5c-28.7-20.7-80.2-171.1-80.2-171.1l33.4-19.4l9.2-62.6l10.2-69.1    c0,0,30.7-16,77.5-10.7c46.8,5.3,50.8,26.1,50.8,26.1l2.6,60.9l2.1,50.8L1227.6,839.9z" class="colorfbaea8 svgShape"/><path fill="#e2af68" d="M1041.8 845c0 0 45.6 128.9 50.3 134.9 4.7 6 14.7 18 14.7 18l29.9-27.1h11.4l66-145.6 24 14-67.3 144-25.3 4.7-43.3 40-31.3-38.7L1041.8 845zM1206.8 779.2c-19.3 8-62.7 25.6-76.6 28.4-11.7 2.4-43.5-19.7-64.5-35.6l10.2-69.1c0 0 30.7-16 77.5-10.7 46.8 5.3 50.8 26.1 50.8 26.1L1206.8 779.2z" class="colore26889 svgShape"/><path fill="#f3fafa" d="M1035.1,818.5l49.5,173.8l18.4,25.7l36.4-37.4l17.7-2.3l70.5-169.4l53.8,37.8l-53.8,161.1    c0,0-67.7-18-72.7-14.5c-5,3.5-50.6,43.6-50.6,43.6s-25.1-13.5-36.1-35.6c0,0-71.7,15.5-80.7,16c0,0-4.5-123.3-9-155.4    L1035.1,818.5z" class="colorfff svgShape"/><polygon fill="#184b40" points="1114.9 1423.6 1297.3 850.9 1343.4 864.8 1354.9 1189.1 1242.7 1195.2 1315.3 1283.2 1118.3 1491.9 926.9 1264.3 978.5 1220.2 888.8 1220.2 930.5 885 978.5 861.8" class="color232047 svgShape"/><path fill="#fbd8a8" d="M1289.5,655.2c0,0-53.3,88.3-93.4,110.3c-40.1,22-74.2,16.5-83.2,11c-9-5.5-63.7-44.1-90.2-116.3    c0,0-58.6,5-65.2-39.1c-6.5-44.1,28.6-56.6,41.6-53.1c13,3.5,20,12.5,20,12.5s6-10.2,14.2-23.9c12.5-20.9,30-49.9,38.5-62.3    c14-20.6,57.1-61.7,83.2-68.7c0,0,41.6,61.2,67.2,81.2c25.6,20.1,90.7,52.6,106.8,56.6c1.9,0.5,3.9,0.8,5.8,1    c14.7,1.8,14.9,4.8,20.2,28.6C1361,620.3,1330.2,653.2,1289.5,655.2z" class="colorfbaea8 svgShape"/><path fill="#e2af68" d="M1334.7,564.6c0,0-48.6,4.7-102.7-32.5c-48-33-85.8-88.8-85.8-88.8s0,0-27.3,16    c-20.8,12.2-65.5,70.5-85.6,97.5c12.5-20.9,30-49.9,38.5-62.3c14-20.6,57.1-61.7,83.2-68.7c0,0,41.6,61.2,67.2,81.2    c25.6,20.1,90.7,52.6,106.8,56.6C1330.8,564.1,1332.7,564.4,1334.7,564.6L1334.7,564.6z" class="colore26889 svgShape"/><path fill="#184b40" d="M1106.8,1469.2c0,0-30.3,69.1-30.5,78.9c-0.2,9.8,35.1,116.5,35.1,116.5l34.7-18.2c0,0-27.2-75.8-31.3-89.2    s7-72,7-72L1106.8,1469.2z" class="color232047 svgShape"/><linearGradient id="a" x1="856.846" x2="1235.599" y1="804.409" y2="804.409" gradientTransform="rotate(-3.87 3087.425 1535.538) scale(.99998)" gradientUnits="userSpaceOnUse"><stop offset="0" stop-color="#f8b352" class="stopColorf8526d svgShape"/><stop offset="1" stop-color="#ffbf66" class="stopColorfca163 svgShape"/></linearGradient><path fill="url(#a)" d="M1016,1157.6c-4.8,0.3-9.6,0-14.3-1l-0.6-0.1l-0.6-0.1c-5.2-1.2-128.9-31.5-169.2-131.4     c-29.6-73.4-22.6-170.3-18.2-208.6c2.9-25.4,23.6-45.2,49.1-46.9c3.1-0.2,6.2-0.1,9.3,0.2c6.6,0.7,13.2,0.9,19.6,0.4     c31.8-2.2,54-17.8,64.4-26.9c8.7-7.7,19.9-12.3,31.5-13.1c11.6-0.8,23.3,2.3,32.9,8.7c11.5,7.6,35.6,20.2,67.4,18     c6.4-0.4,12.9-1.5,19.4-3.1c3-0.7,6.1-1.2,9.2-1.4c25.5-1.7,48.6,15,55,39.8c9.5,37.4,29.5,132.5,10.1,209.2     c-26.5,104.5-145,151.1-150,153l-0.9,0.3l-1.2,0.4C1024.8,1156.4,1020.4,1157.3,1016,1157.6z"/><path fill="#f3fafa" d="M1132.8,801.9c-1.8-7.2-9.2-11.6-16.4-9.8c-56.7,14.1-100.3-8.5-118.1-20.3c-5.2-3.4-11.9-3-16.6,1.1     c-16,14.1-56.2,42.4-114.3,36.1c-7.4-0.8-14.1,4.6-14.9,12c-3.9,34.2-10.8,124,15.6,189.3c33.2,82.1,141.7,107.8,141.7,107.8     c2.3,0.5,4.7,0.3,7-0.4l0.3-0.1c0,0,104.1-40,125.9-125.9C1160.1,923.4,1141.2,835.2,1132.8,801.9z" class="colorfff svgShape"/><linearGradient id="b" x1="976.102" x2="1132.018" y1="835.216" y2="835.216" gradientTransform="rotate(-3.87 3087.425 1535.538) scale(.99998)" gradientUnits="userSpaceOnUse"><stop offset="0" stop-color="#f8b352" class="stopColorf8526d svgShape"/><stop offset="1" stop-color="#ffbf66" class="stopColorfca163 svgShape"/></linearGradient><path fill="url(#b)" d="M1072,909.9l-65.7,59.1l-41.9-37.7c-3.3-3-8.4-2.7-11.4,0.6l-18.6,20.3c-3.1,3.4-2.8,8.7,0.7,11.7l55.1,50     l23.8,19.6c4.6,3.4,10.4,2.4,13.4-3.2l57.2-110.6C1088.8,911.6,1078.7,903.8,1072,909.9z"/><path fill="#fbd8a8" d="M990.4,768.2c-2.2,2.4-5.2,4.5-9.2,5.8l0,0c0,0,0,0.1,0.1,0.2c0.7,1.7,6.7,16.3,1.5,25.8     c-1.2,2.2-2.7,4.2-4.3,6c-0.6,0.7-1.2,1.3-1.9,1.9c-5.1,4.9-10.9,7.4-13.4,8c0,0,0,0,0,0c0.3,0.3,4.1,3.6,5.6,9.7     c1.2,4.8,1.1,11.2-3.1,19.1c-1.1,2.1-2.3,4.2-3.6,6.2h0c-1.9,3.1-3.9,6-5.9,8.8c-7.9,10.8-16.4,18.7-23.2,23.4     c-9.7,6.7-15.2,3.7-21.2,3.2c-4.4-0.3-20.2-3.5-27.9-5.1c-1-0.2-1.9-0.4-2.6-0.5c-1.1-0.2-1.8-0.4-1.8-0.4s-4.3,21.9-10.3,28.1     c-6.1,6.2-25.8,13.4-38.1,16.4c-12.2,3-36.9,21-36.9,21l-51.6-42.4c0,0,1.7-4,4.5-10.7c10.4-24.9,36.1-86.2,44.8-107.3     c11.1-26.7,34.6-63.6,45.2-65.9c10.6-2.3,49.8-4.6,68.6-8.8c18.9-4.1,35.3-9,46.8-6.4c9.6,2.1,32,29.5,40,41.9     c1.6,2.5,2.7,4.4,2.9,5.3C996.5,755.6,995.3,762.8,990.4,768.2z" class="colorfbaea8 svgShape"/><path fill="#e2af68" d="M912.1,865.9c-3.9,4.3-26.1,2.3-28.8,7.3c-1.5,2.9-1.9,5.7-1.8,7.5c-1.1-0.2-1.8-0.4-1.8-0.4     s-4.3,21.9-10.3,28.1c-6.1,6.2-25.8,13.4-38.1,16.4c-12.2,3-36.9,21-36.9,21l-51.6-42.4c0,0,1.7-4,4.5-10.7     c13.4,11.5,40.6,34.3,44.6,33.8c5.3-0.7,11.1-5,12.2-6.3c1.2-1.3,31.2-3.7,42.2-14.3c11-10.7,18-27.7,21.7-38.3     c3.7-10.7,13.3-9.3,16-9.5C886.6,858,915.9,861.6,912.1,865.9z" class="colore26889 svgShape"/><path fill="#f3fafa" d="M716.6,916.3c0,0,18.9-25.3,22.1-25.3s58.5,52.1,59.4,54.4c0.9,2.3,0.5,25.1-5.5,31.2     C786.6,982.6,716.6,916.3,716.6,916.3z" class="colorfff svgShape"/><path fill="#295a4f" d="M804.1,986.8c0,0-90.3,223.9-114.3,274.6c-24,50.7-83.8,93.1-146.5,58c-23-12.9-31.5-39.2-31.2-69.8     c0.6-52.8,27.2-118.4,50.5-150.4c36.9-50.7,153.9-190.7,153.9-190.7l61.8,55.3L804.1,986.8z" class="color2f295a svgShape"/><path fill="#184b40" d="M804.1,986.8c0,0-90.3,223.9-114.3,274.6c-24,50.7-83.8,93.1-146.5,58c-23-12.9-31.5-39.2-31.2-69.8     c39.9,33.4,124.9,31,152.3-3.5c28.9-36.5,108.1-210.5,128.2-269.6L804.1,986.8z" class="color232047 svgShape"/><path fill="#e2af68" d="M912.1 821.2c12.1 5.3 44.2 29.7 50.2 29.7-1.9 3.1-3.9 6-5.9 8.8-9-11.6-34.5-26.7-40.4-30.1C908.9 825.6 899.9 815.9 912.1 821.2zM968.9 825.6c-2.5-5.1-5.4-9.3-5.6-9.7C963.6 816.1 967.4 819.5 968.9 825.6zM954.3 799.9c6.7 3.2 16.6 5.6 24.3 6.1-.6.7-1.2 1.3-1.9 1.9-5.1 4.9-10.9 7.4-13.4 8 0 0-6-6-16-9.8-10-3.9-45.7-28.5-41-28.5C910.9 777.6 942.9 794.6 954.3 799.9zM990.4 768.2c-2.2 2.4-5.2 4.5-9.2 5.8l0 0c0 0 0 .1.1.2-11.4-7.7-56.3-38.3-53.1-38.9 3.7-.7 47.7 32 56.3 27 5.1-2.9 7.2-10.3 8.1-16 1.6 2.5 2.7 4.4 2.9 5.3C996.5 755.6 995.3 762.8 990.4 768.2z" class="colore26889 svgShape"/><path fill="#fbd8a8" d="M1425.7,1486l-2.9,106l-0.7,24.1c0,0-21.6-1-29.4,0.6c-7.9,1.6-37.3,17.3-48.7,23.5     c-11.4,6.2-33,21.9-63.4,12.4c-30.4-9.5-60.1-24.2-63.7-31.4c-0.7-1.4-1-3-1-4.8c-0.1-7.6,4.6-17.8,4.6-22c0-0.4-0.1-0.8-0.2-1.3     c-1.4-4.8-10.3-11.4-13.4-20.6c-0.3-0.8-0.5-1.7-0.7-2.6c-2.2-10.7,4.1-20,4.6-27.6c0-0.5,0-1,0-1.5c-0.2-4.6-4.7-8.6-9.1-13.5     c-3.1-3.4-6.1-7.3-7.5-12.3c-3.6-12.1,10.1-43.8,19.9-50c9.7-6.2,85.7-24.2,85.7-24.2s-6.9-37.3-1.6-69     c5.2-31.7,28.8-44.1,38.2-43.8s9.5,11.1,9.1,33.3c-0.3,22.2,3.3,70.6,5.6,77.8s29.4,36.6,40.2,42.5     C1401.8,1487.6,1425.7,1486,1425.7,1486z" class="colorfbaea8 svgShape"/><path fill="#e2af68" d="M1422.8,1592l-0.7,24.1c0,0-21.6-1-29.4,0.6c-7.9,1.6-37.3,17.3-48.7,23.5c-11.4,6.2-33,21.9-63.4,12.4    c-30.4-9.5-60.1-24.2-63.7-31.4c-0.7-1.4-1-3-1-4.8c20.8,5.9,65.6,18.1,81.5,18.3c21.1,0.3,72.9-35,80.2-39    C1382.7,1593.1,1408,1592.2,1422.8,1592z" class="colore26889 svgShape"/><path fill="#f3fafa" d="M1464.6,1623.6c0,0-5.7,1-13.4,1.7c-7.7,0.7-26.7-1.7-26.7-1.7s-2-10.6-4.7-25.5    c-3.9-21.4-9.4-51.6-12.7-71.8c-5.7-34.1-4.3-46.8-4.3-46.8l27.9-11.2l11.1-4.5L1464.6,1623.6z" class="colorfff svgShape"/><path fill="#c4c6c6" d="M1464.6,1623.6c0,0-5.7,1-13.4,1.7c-7.7,0.7-26.7-1.7-26.7-1.7s-2-10.6-4.7-25.5h23.7l-12.8-129.8l11.1-4.5    L1464.6,1623.6z" class="colorc6c4c4 svgShape"/><path fill="#295a4f" d="M1703.7,1396c-0.1,0.9-0.1,1.8-0.2,2.7c-10.7,119-94.2,209.2-154.4,227.9c-60.2,18.7-90.2,0-90.2,0l-9.3-57.6    l-16.8-104.1c0,0,37.1-19.6,52.8-62.2h0c1.9-5.2,3.5-10.8,4.7-16.6c10.7-54.1-1.2-52.8-57.5-177.1    c-37.2-82.1-49.6-145.9-50.2-193.8c-0.4-24.6,2.4-45,6.4-61.6c11.8-48.8,72.2-39.1,81.3-30.7c0,0,89.6,79.5,137,153.7    C1654.3,1150.2,1713.3,1277.8,1703.7,1396z" class="color2f295a svgShape"/><path fill="#184b40" d="M1432.8 1208.9c-37.2-82.1-49.6-145.9-50.2-193.8 4.3 17.2 10.9 39.5 20 62.5 19.5 49 76.9 150.9 98.9 219.5 22 68.6-15.9 105.5-15.9 105.5 1.9-5.2 3.5-10.8 4.7-16.6C1501 1331.8 1489.1 1333.2 1432.8 1208.9zM1703.7 1396c-.1.9-.1 1.8-.2 2.7-10.7 119-94.2 209.2-154.4 227.9-60.2 18.7-90.2 0-90.2 0l-9.3-57.6c28.1 2.1 89.4.6 153.9-40.7C1654.7 1495.5 1686.3 1438.2 1703.7 1396z" class="color232047 svgShape"/><path fill="#2acaac" d="M1116.8,1528.2c-2.4-17-22.2-38.6-51.1-45.5c-25.2-6-59.4-17.2-67.6-22c-3.9-5.5-14.5-24.4-23-39.7      c-13.6-24.2-28.9-51.7-40-67.7c-27.5-39.8-92.8-48.5-115.6-48.5H592.9c-1.7,0-42.1,1.1-68.4,37.5      c-20.6,28.5-58.3,113.7-64.1,126.9c-3.2,4.5-13.4,16.3-23.3,16.3c-15.1,0-27.2,2-37,6.2c-12.7,5.4-21.9,14.8-26.6,27.2      c-2,5.2-5,13.2-3.5,115.4c0.7,48.9,2.2,96.4,2.2,96.9l0,0.7l0.1,0.6c1.5,15.3,16.5,44.2,62,44.2h640.9l1.7-0.3      c15.3-2.8,45.2-17.8,48.9-54.1C1129.6,1687.1,1117.7,1534.1,1116.8,1528.2z M1087.7,1718.1c-1.4,13.9-12,18.5-16.4,19.8H434.5      c-19,0-22.9-7.2-23.7-9.7c-2.6-85.9-3.7-181.6-0.9-196.5c1.1-2.5,5.2-7.8,27.3-7.8c33.2,0,54.2-31.6,56.5-35.2l0.8-1.2l0.6-1.4      c11.4-26.2,44.6-99,60.7-121.4c14.2-19.7,35.6-21.4,37.8-21.5h225.9c25.9,0,69.5,11.1,83.9,31.9c10.1,14.6,25,41.2,38.1,64.6      c18.2,32.5,24.5,43.4,29.6,48.5c4.3,4.3,12.2,9.6,40.3,18.9c14.5,4.8,32.4,9.9,45.5,13c13.6,3.2,20.5,11.9,22,14.5      C1080.6,1551.8,1090.6,1690.3,1087.7,1718.1z" class="color7a91e5 svgShape"/><path fill="#f3fafa" d="M1087.7,1718.1c-1.4,13.9-12,18.5-16.4,19.8H434.5c-19,0-22.9-7.2-23.7-9.7c-2.6-85.9-3.7-181.6-0.9-196.5      c1.1-2.5,5.2-7.8,27.3-7.8c33.2,0,54.2-31.6,56.5-35.2l0.8-1.2l0.6-1.4c11.4-26.2,44.6-99,60.7-121.4      c14.2-19.7,35.6-21.4,37.8-21.5h225.9c25.9,0,69.5,11.1,83.9,31.9c10.1,14.6,25,41.2,38.1,64.6c18.2,32.5,24.5,43.4,29.6,48.5      c4.3,4.3,12.2,9.6,40.3,18.9c14.5,4.8,32.4,9.9,45.5,13c13.6,3.2,20.5,11.9,22,14.5C1080.6,1551.8,1090.6,1690.3,1087.7,1718.1z      " class="colorfff svgShape"/><circle cx="569.1" cy="1758" r="111.7" fill="#f3fafa" class="colorfff svgShape"/><circle cx="569.1" cy="1758" r="90.5" fill="#2acaac" class="color7a91e5 svgShape"/><circle cx="927.3" cy="1758" r="111.7" fill="#f3fafa" transform="rotate(-80.781 927.346 1757.993)" class="colorfff svgShape"/><circle cx="927.3" cy="1758" r="90.5" fill="#2acaac" class="color7a91e5 svgShape"/><path fill="#e2af68" d="M1255.9 1581.2c0 3.4-23.4 9.3-35.7 12.1-1.4-4.8-10.3-11.4-13.4-20.6 5.1.6 13.2 1.4 22.8 1.6C1245.9 1574.6 1255.9 1576.6 1255.9 1581.2zM1210.6 1542.4c0-.5 0-1 0-1.5-.2-4.6-4.7-8.6-9.1-13.5 7.9.1 19.8-.2 27.1-1.8 11.7-2.7 24-3 25.3 0C1254.9 1527.9 1224.7 1537.9 1210.6 1542.4z" class="colore26889 svgShape"/></svg>