<svg xmlns="http://www.w3.org/2000/svg" enable-background="new 0 0 2500 2500" viewBox="0 0 2500 2500"><path fill="#ffbf66" d="M465.02,1317.73c-0.34,0-0.67-0.09-0.98-0.26l-207.1-120.36c-4.28-2.49-6.84-6.94-6.84-11.9    c0.01-4.96,2.58-9.4,6.87-11.88L994.8,738.88c0.94-0.54,2.13-0.24,2.68,0.69c0.54,0.93,0.24,2.12-0.69,2.67L258.93,1176.7    c-3.09,1.78-4.92,4.96-4.93,8.51c0,3.55,1.83,6.74,4.9,8.52L466,1314.09c0.93,0.54,1.24,1.74,0.7,2.67    C466.34,1317.38,465.69,1317.73,465.02,1317.73z" class="colordbdee4 svgShape"/><path fill="#f3fafa" d="M445.77,1329.53c-14.11-8.15-14.19-21.36-0.17-29.51c14.02-8.15,36.84-8.14,50.95,0     c14.11,8.15,14.18,21.36,0.16,29.5S459.88,1337.68,445.77,1329.53z" class="colorfff svgShape"/><path fill="#ffbf66" d="M471.27,1337.55c-9.57,0-19.16-2.11-26.47-6.33c-7.48-4.32-11.6-10.17-11.62-16.5     c-0.01-6.28,4.05-12.1,11.43-16.39c14.55-8.45,38.28-8.44,52.91,0c7.48,4.32,11.59,10.17,11.6,16.49     c0.01,6.28-4.05,12.1-11.43,16.39C490.42,1335.44,480.85,1337.55,471.27,1337.55z M471.03,1295.85c-8.87,0-17.73,1.95-24.45,5.86     c-6.13,3.56-9.5,8.18-9.5,13.01c0.01,4.87,3.44,9.53,9.66,13.12l0,0c13.54,7.82,35.52,7.82,48.98,0c6.14-3.56,9.5-8.18,9.5-13.01     c-0.01-4.87-3.43-9.52-9.65-13.11C488.8,1297.8,479.9,1295.85,471.03,1295.85z" class="colordbdee4 svgShape"/><path fill="#2acaac" d="M471.07,1305.47c5.5,0,10.82,1.25,14.61,3.44c3.04,1.75,4.78,3.91,4.78,5.91c0,1.98-1.71,4.11-4.69,5.84     c-3.75,2.18-9.05,3.43-14.55,3.43c-5.5,0-10.82-1.25-14.59-3.43c-3.04-1.75-4.78-3.91-4.79-5.92c0-1.98,1.7-4.11,4.68-5.84     C460.28,1306.72,465.58,1305.47,471.07,1305.47z" class="color1fb6ff svgShape"/><path fill="#184b40" d="M346.85,1234.77c5.91,0,11.63,1.34,15.69,3.69c3.26,1.88,5.13,4.2,5.14,6.35c0,2.12-1.83,4.41-5.04,6.27    c-4.03,2.34-9.72,3.68-15.62,3.68c-5.9,0-11.62-1.34-15.67-3.69c-3.26-1.88-5.14-4.2-5.14-6.35c0-2.12,1.83-4.41,5.03-6.27    C335.26,1236.11,340.95,1234.77,346.85,1234.77z" class="color373b42 svgShape"/><path fill="#f3fafa" d="M976.49,722.75c-14.11,8.15-14.19,21.36-0.17,29.51c14.01,8.15,36.83,8.14,50.93,0      c14.11-8.15,14.18-21.36,0.16-29.5C1013.4,714.61,990.6,714.6,976.49,722.75z" class="colorfff svgShape"/><path fill="#ffbf66" d="M1001.75,760.28c-9.57,0-19.14-2.11-26.41-6.34c-7.38-4.29-11.43-10.11-11.42-16.39      c0.01-6.32,4.13-12.18,11.61-16.5l0,0c14.63-8.45,38.34-8.44,52.88,0.01c7.38,4.29,11.44,10.11,11.42,16.39      c-0.01,6.32-4.13,12.17-11.6,16.49C1020.92,758.17,1011.33,760.28,1001.75,760.28z M1001.98,718.57      c-8.86,0-17.74,1.96-24.51,5.87l0,0c-6.22,3.59-9.65,8.25-9.66,13.12c-0.01,4.83,3.36,9.45,9.49,13.01      c13.45,7.82,35.43,7.82,48.97-0.01c6.22-3.59,9.64-8.25,9.65-13.11c0.01-4.83-3.36-9.45-9.49-13.01      C1019.7,720.53,1010.85,718.57,1001.98,718.57z M976.5,722.75h0.05H976.5z" class="colordbdee4 svgShape"/><path fill="#2acaac" d="M1001.79,746.81c5.5,0,10.82-1.25,14.6-3.44c3.04-1.75,4.78-3.91,4.78-5.91c0-1.98-1.71-4.11-4.69-5.84      c-3.75-2.18-9.05-3.43-14.54-3.43c-5.49,0-10.81,1.25-14.59,3.43c-3.04,1.75-4.78,3.91-4.79,5.92c0,1.98,1.7,4.11,4.68,5.84      C991,745.56,996.3,746.81,1001.79,746.81z" class="color1fb6ff svgShape"/><path fill="#184b40" d="M877.6,817.51c5.91,0,11.62-1.34,15.68-3.69c3.26-1.88,5.13-4.2,5.14-6.35c0-2.12-1.83-4.41-5.03-6.27     c-4.03-2.34-9.72-3.68-15.62-3.68c-5.9,0-11.61,1.34-15.67,3.69c-3.26,1.88-5.14,4.2-5.14,6.35c0,2.12,1.83,4.41,5.03,6.27     C866.01,816.17,871.7,817.51,877.6,817.51z" class="color373b42 svgShape"/><path fill="#ffbf66" d="M1185.92 1389.3c-.34 0-.67-.08-.98-.26l-677.5-391.16c-.93-.54-1.25-1.73-.72-2.67.54-.94 1.75-1.25 2.67-.71l677.5 391.16c.93.54 1.25 1.73.72 2.67C1187.24 1388.95 1186.59 1389.3 1185.92 1389.3zM689.34 2158.03c-6.46 0-12.93-1.68-18.69-5.02l-207.06-120.33c-.93-.54-1.24-1.74-.7-2.67.53-.94 1.73-1.24 2.67-.71l207.06 120.32c10.28 5.99 23.08 5.99 33.38.05l208.49-120.37c.91-.53 2.11-.23 2.67.71.53.93.21 2.13-.72 2.67l-208.49 120.37C702.2 2156.37 695.77 2158.03 689.34 2158.03z" class="colordbdee4 svgShape"/><path fill="#f3fafa" d="M481.96,2006.45c14.11,8.15,14.19,21.36,0.17,29.51s-36.83,8.14-50.93,0c-14.11-8.15-14.18-21.36-0.16-29.5      C445.05,1998.31,467.85,1998.31,481.96,2006.45z" class="colorfff svgShape"/><path fill="#ffbf66" d="M456.7,2043.99c-9.57,0-19.16-2.11-26.48-6.34c-7.47-4.32-11.59-10.17-11.6-16.49      c-0.01-6.28,4.05-12.1,11.43-16.39c14.54-8.44,38.26-8.45,52.88-0.01c7.48,4.32,11.6,10.17,11.61,16.49      c0.01,6.28-4.05,12.1-11.43,16.39C475.85,2041.88,466.28,2043.99,456.7,2043.99z M456.46,2002.28c-8.86,0-17.72,1.95-24.44,5.86      c-6.14,3.56-9.5,8.19-9.5,13.01c0.01,4.87,3.43,9.52,9.65,13.11c13.54,7.82,35.52,7.83,48.97,0.01c6.13-3.56,9.5-8.18,9.5-13.01      c-0.01-4.87-3.44-9.53-9.66-13.12l0,0C474.21,2004.23,465.34,2002.28,456.46,2002.28z" class="colordbdee4 svgShape"/><path fill="#2acaac" d="M456.66,2030.52c-5.5,0-10.82-1.25-14.6-3.44c-3.04-1.75-4.78-3.91-4.78-5.91c0-1.98,1.71-4.11,4.69-5.84      c3.75-2.18,9.05-3.43,14.54-3.43c5.49,0,10.81,1.25,14.59,3.43c3.04,1.75,4.78,3.91,4.79,5.92c0,1.98-1.7,4.11-4.68,5.84      C467.45,2029.27,462.15,2030.52,456.66,2030.52z" class="color1fb6ff svgShape"/><path fill="#184b40" d="M580.85,2101.22c-5.91,0-11.62-1.34-15.68-3.69c-3.26-1.88-5.13-4.2-5.14-6.35c0-2.12,1.83-4.41,5.03-6.27     c4.03-2.34,9.72-3.68,15.62-3.68c5.9,0,11.61,1.34,15.67,3.69c3.26,1.88,5.14,4.2,5.14,6.35c0,2.12-1.83,4.41-5.03,6.27     C592.44,2099.88,586.75,2101.22,580.85,2101.22z" class="color373b42 svgShape"/><path fill="#ffbf66" d="M1970.41 1980.01c-6.43 0-12.86-1.66-18.6-4.97l-208.49-120.37c-.93-.54-1.25-1.73-.72-2.67.55-.94 1.75-1.25 2.67-.71l208.49 120.37c10.3 5.95 23.1 5.93 33.38-.05l207.06-120.32c.93-.54 2.13-.23 2.67.71.54.93.23 2.12-.7 2.67l-207.06 120.32C1983.35 1978.33 1976.88 1980.01 1970.41 1980.01zM1916.62 2195.99c-.34 0-.67-.08-.98-.26l-468.21-270.32c-.93-.54-1.25-1.73-.72-2.67.55-.94 1.75-1.25 2.67-.71l468.21 270.32c.93.54 1.25 1.73.72 2.66C1917.95 2195.64 1917.29 2195.99 1916.62 2195.99z" class="colordbdee4 svgShape"/><path fill="#f3fafa" d="M2177.8,1828.43c-14.11,8.15-14.19,21.36-0.17,29.51s36.83,8.14,50.93,0c14.11-8.15,14.18-21.36,0.16-29.5      S2191.91,1820.29,2177.8,1828.43z" class="colorfff svgShape"/><path fill="#ffbf66" d="M2203.05,1865.97c-9.57,0-19.14-2.11-26.4-6.34c-7.38-4.29-11.44-10.11-11.43-16.39      c0.01-6.32,4.13-12.18,11.61-16.5l0,0c14.63-8.44,38.34-8.44,52.88,0.01c7.38,4.29,11.44,10.11,11.43,16.39      c-0.01,6.32-4.12,12.17-11.6,16.49C2222.22,1863.85,2212.63,1865.97,2203.05,1865.97z M2178.77,1830.12      c-6.22,3.59-9.65,8.25-9.66,13.12c-0.01,4.83,3.37,9.45,9.5,13.01c13.45,7.82,35.43,7.82,48.97-0.01      c6.22-3.59,9.64-8.25,9.65-13.11c0.01-4.83-3.36-9.45-9.5-13.01C2214.29,1822.31,2192.33,1822.3,2178.77,1830.12      L2178.77,1830.12z" class="colordbdee4 svgShape"/><g><path fill="#2acaac" d="M2203.1,1852.5c5.5,0,10.82-1.25,14.6-3.44c3.04-1.75,4.78-3.91,4.78-5.91c0-1.98-1.71-4.11-4.69-5.84      c-3.75-2.18-9.05-3.43-14.54-3.43c-5.49,0-10.81,1.25-14.59,3.43c-3.04,1.75-4.78,3.91-4.79,5.92c0,1.98,1.7,4.11,4.68,5.84      C2192.3,1851.25,2197.6,1852.5,2203.1,1852.5z" class="color1fb6ff svgShape"/></g><g><path fill="#184b40" d="M2082.65,1925.51c5.91,0,11.62-1.35,15.68-3.69c3.26-1.88,5.13-4.2,5.14-6.35c0-2.12-1.83-4.41-5.03-6.27     c-4.03-2.34-9.72-3.68-15.62-3.68c-5.9,0-11.61,1.34-15.67,3.69c-3.26,1.88-5.14,4.2-5.14,6.35c0,2.12,1.83,4.41,5.03,6.27     C2071.06,1924.17,2076.75,1925.51,2082.65,1925.51z" class="color373b42 svgShape"/></g><g><polygon fill="#184b40" points="420.62 1799.14 1196.34 2249.96 2112.84 1720.88 1337.05 1270.06" opacity=".1" class="color373b42 svgShape"/><path fill="#184b40" d="M1401.33,392.24c10.04,5.76,16.25,17.87,16.25,35.48l0.45,142.51l0.06,31.6l775.75,450.84l-0.06-31.66         l-0.39-142.45c-0.06-17.61-6.22-29.72-16.32-35.48L1401.33,392.24z" class="color373b42 svgShape"/><path fill="#184b40" d="M2193.84,1054.63c-0.34,0-0.68-0.09-0.98-0.26l-775.75-450.84c-0.59-0.35-0.97-0.99-0.97-1.68         l-0.52-174.11c0-16.02-5.34-27.95-15.04-33.66l-0.24-0.14c-0.93-0.54-1.24-1.73-0.71-2.66c0.55-0.93,1.73-1.25,2.66-0.72         c0.09,0.05,0.18,0.1,0.26,0.15l775.5,450.7c11.08,6.32,17.22,19.52,17.29,37.16l0.45,174.11c0,0.7-0.37,1.35-0.98,1.69         C2194.51,1054.54,2194.18,1054.63,2193.84,1054.63z M1420.05,600.71l771.84,448.57l-0.44-170.71         c-0.05-16.18-5.5-28.18-15.33-33.79l-762.9-443.37c4.13,6.86,6.32,15.81,6.32,26.32L1420.05,600.71z" class="color373b42 svgShape"/><g><path fill="#f3fafa" d="M420.59,1679.84l775.75,450.84l778.79-449.61c15.28-8.87,28.88-23.76,38.92-41.05           c10.03-17.35,16.06-36.52,16.06-54.19l-2.14-611.75c-0.06-34.9,12.17-73.94,32.05-108.19           c19.81-34.38,47.53-64.68,77.89-82.17c30.37-17.55,58.14-19.36,78.02-7.9l-775.75-450.84c-19.94-11.4-47.72-9.65-78.09,7.9           c-30.37,17.48-58.01,47.78-77.83,82.17c-19.88,34.25-32.18,73.3-32.05,108.2l2.07,611.82           c0.06,17.61-6.02,36.78-16.06,54.13c-9.97,17.29-23.63,32.24-38.91,41.05L420.59,1679.84z" class="colorfff svgShape"/><path fill="#184b40" d="M1196.34,2132.63c-0.34,0-0.68-0.09-0.98-0.26l-775.75-450.85c-0.6-0.35-0.97-0.99-0.97-1.69           c0-0.7,0.37-1.34,0.98-1.69l778.73-449.61c14.42-8.31,27.99-22.63,38.2-40.34c10.25-17.73,15.85-36.6,15.79-53.15           l-2.07-611.81c-0.13-34.29,11.35-73.06,32.32-109.18c20.94-36.34,48.82-65.77,78.53-82.87           c30.11-17.4,58.53-20.19,80.03-7.9l775.76,450.85c0.93,0.54,1.24,1.73,0.71,2.66c-0.56,0.94-1.76,1.24-2.67,0.71           c0,0,0,0-0.01,0l-0.03-0.02c-19.86-11.42-47.55-8.53-76.03,7.92c-28.76,16.56-56.9,46.24-77.18,81.45           c-20.27,34.93-31.86,74-31.79,107.22l2.13,611.75c0,17.39-5.8,36.98-16.32,55.18c-10.6,18.25-24.67,33.08-39.62,41.76           l-778.8,449.61C1197.01,2132.54,1196.67,2132.63,1196.34,2132.63z M424.48,1679.84l771.85,448.58l777.81-449.05           c14.37-8.34,27.95-22.67,38.21-40.34c10.18-17.61,15.79-36.5,15.79-53.21l-2.13-611.74           c-0.07-33.89,11.71-73.68,32.32-109.18c20.91-36.31,48.83-65.74,78.6-82.88c21.73-12.56,42.54-17.53,60.49-14.71           l-758.22-440.66c-20.23-11.57-47.27-8.77-76.12,7.9c-29.12,16.77-56.51,45.69-77.11,81.45           c-20.33,35.02-31.92,74.1-31.8,107.22l2.07,611.82c0.07,17.22-5.72,36.8-16.31,55.11c-10.56,18.29-24.63,33.12-39.63,41.76           L424.48,1679.84z" class="color373b42 svgShape"/><path fill="#f3fafa" d="M2019.81,766.61l-611.89-355.65c-0.15,0.15-0.3,0.23-0.53,0.3" class="colorfff svgShape"/><path fill="#184b40" d="M2019.81,768.57c-0.34,0-0.67-0.09-0.98-0.26l-611-355.13c-0.96,0.23-1.96-0.32-2.29-1.28           c-0.34-1.02,0.21-2.13,1.23-2.47c0.62-0.62,1.37-0.58,2.13-0.14l611.89,355.65c0.93,0.54,1.24,1.74,0.7,2.67           C2021.14,768.22,2020.48,768.57,2019.81,768.57z" class="color373b42 svgShape"/><g><line x1="1366.41" x2="1985.47" y1="454.22" y2="814.01" fill="#fff"/><path fill="#184b40" d="M1985.47,815.97c-0.34,0-0.67-0.09-0.98-0.26l-619.06-359.8c-0.93-0.54-1.24-1.74-0.7-2.67           c0.53-0.94,1.72-1.24,2.67-0.7l619.06,359.8c0.93,0.54,1.24,1.74,0.7,2.67C1986.79,815.62,1986.14,815.97,1985.47,815.97z" class="color373b42 svgShape"/></g><g><polygon fill="#ffbf66" points="1196.35 2130.67 420.57 1679.84 420.75 1743.2 1196.53 2194.04" class="colordbdee4 svgShape"/><path fill="#184b40" d="M1196.53,2195.99c-0.34,0-0.68-0.09-0.98-0.26l-775.79-450.84c-0.59-0.35-0.97-0.99-0.97-1.68           l-0.18-63.37c0-0.7,0.37-1.35,0.98-1.7c0.61-0.35,1.35-0.35,1.96,0l775.78,450.83c0.59,0.35,0.97,0.99,0.97,1.68           l0.18,63.37c0,0.7-0.37,1.35-0.98,1.69C1197.2,2195.9,1196.87,2195.99,1196.53,2195.99z M422.7,1742.08l771.88,448.56           l-0.18-58.85l-771.87-448.56L422.7,1742.08z" class="color373b42 svgShape"/></g><g><path fill="#ffbf66" d="M2137.88,783.69c-30.34,17.52-58.04,47.78-77.86,82.16c-19.86,34.3-32.13,73.32-32.03,108.23           l2.09,611.78c0.05,17.62-6.02,36.78-16.04,54.17c-10.01,17.3-23.64,32.2-38.93,41.03l-778.75,449.61l0.18,63.37           l778.75-449.61c30.34-17.52,58.04-47.78,77.86-82.16c19.86-34.31,32.17-73.34,32.03-108.23l-2.09-611.78           c-0.01-17.65,6.02-36.78,16.04-54.17c10.01-17.3,23.64-32.2,38.93-41.03c15.34-8.85,28.96-9.68,39.03-3.98           c10.08,5.79,16.24,17.89,16.29,35.51l0.4,142.46l0.09,31.64l55.11-31.82l-0.49-174.1c-0.06-34.94-12.55-59.65-32.54-70.95           C2196.04,764.38,2168.26,766.14,2137.88,783.69z" class="colordbdee4 svgShape"/><path fill="#184b40" d="M1196.53,2195.99c-0.34,0-0.67-0.09-0.98-0.26c-0.6-0.35-0.98-0.99-0.98-1.69l-0.18-63.37           c0-0.7,0.37-1.35,0.98-1.69l778.76-449.61c14.41-8.32,27.98-22.64,38.21-40.32c10.22-17.75,15.82-36.64,15.78-53.19           l-2.1-611.77c-0.09-34.29,11.38-73.08,32.29-109.21c20.91-36.26,48.82-65.69,78.58-82.87l0,0           c30.16-17.4,58.56-20.19,80.02-7.87c21.55,12.18,33.46,37.98,33.52,72.64l0.5,174.1c0,0.7-0.37,1.35-0.98,1.7l-55.1,31.81           c-0.61,0.35-1.34,0.35-1.95,0c-0.6-0.35-0.98-0.99-0.98-1.69l-0.5-174.1c-0.05-16.17-5.49-28.18-15.31-33.82           c-9.85-5.56-23.02-4.15-37.09,3.98c-14.4,8.32-27.98,22.64-38.21,40.32c-10.18,17.67-15.78,36.56-15.78,53.2l2.09,611.77           c0.14,34.22-11.33,73.01-32.29,109.21c-20.9,36.25-48.81,65.68-78.58,82.87l-778.75,449.61           C1197.2,2195.9,1196.87,2195.99,1196.53,2195.99z M1198.3,2131.8l0.18,58.87l775.83-447.93           c28.76-16.61,56.89-46.29,77.15-81.44c20.33-35.1,31.9-74.19,31.77-107.25l-2.09-611.78c-0.01-17.31,5.78-36.89,16.3-55.15           c10.58-18.27,24.66-33.1,39.65-41.75c15.31-8.84,29.88-10.26,40.97-3.99c11.1,6.37,17.23,19.58,17.29,37.2l0.49,170.73           l51.21-29.56l-0.5-172.97c-0.06-33.19-11.26-57.79-31.55-69.25c-20.23-11.62-47.25-8.82-76.13,7.86l0,0           c-28.76,16.6-56.87,46.29-77.15,81.45c-20.28,35.04-31.86,74.13-31.77,107.25l2.1,611.77c0.05,17.23-5.74,36.81-16.3,55.15           c-10.58,18.26-24.66,33.09-39.65,41.75L1198.3,2131.8z" class="color373b42 svgShape"/></g></g><g><polygon fill="#ffbf66" points="682.04 1701.03 1133.51 1963.4 1762.01 1600.54 1310.53 1338.17" class="colordbdee4 svgShape"/><polygon fill="#f3fafa" points="1135.6 1495.51 1700.32 1233.4 1699.18 1590.67 1570.94 1665.27 1570.94 1708.62 1393.09 1811.98 1355.67 1790.37 1135.6 1918.26" class="colorfff svgShape"/><path fill="#184b40" d="M1135.61,1920.21c-0.34,0-0.67-0.09-0.98-0.26c-0.6-0.35-0.98-0.99-0.98-1.69v-422.75                    c0-0.76,0.44-1.45,1.13-1.77l564.71-262.12c0.62-0.28,1.31-0.23,1.87,0.13c0.56,0.36,0.9,0.98,0.9,1.65                    l-1.14,357.27c0,0.69-0.37,1.33-0.97,1.68l-127.27,74.03v42.23c0,0.7-0.37,1.34-0.97,1.69l-177.85,103.36                    c-0.61,0.35-1.35,0.35-1.96,0l-36.45-21.04l-219.08,127.32C1136.28,1920.13,1135.94,1920.21,1135.61,1920.21z                     M1137.56,1496.76v418.11l217.13-126.19c0.61-0.35,1.35-0.35,1.96,0l36.45,21.04l175.9-102.22v-42.23                    c0-0.7,0.37-1.34,0.97-1.69l127.27-74.03l1.13-353.09L1137.56,1496.76z" class="color373b42 svgShape"/><polygon fill="#f3fafa" points="951.36 1216.93 1135.6 1495.51 1135.6 1918.26 726.28 1681.94 727.42 1281.24" class="colorfff svgShape"/><path fill="#184b40" d="M1135.61,1920.21c-0.34,0-0.67-0.09-0.98-0.26l-409.32-236.32c-0.6-0.35-0.98-1-0.98-1.7                    l1.14-400.7c0-0.87,0.58-1.63,1.41-1.87l223.93-64.31c0.82-0.24,1.69,0.08,2.17,0.8l184.25,278.59                    c0.21,0.32,0.32,0.69,0.32,1.08v422.75c0,0.7-0.37,1.34-0.98,1.69                    C1136.28,1920.13,1135.94,1920.21,1135.61,1920.21z M728.24,1680.82l405.42,234.07V1496.1l-183.14-276.9                    l-221.15,63.51L728.24,1680.82z" class="color373b42 svgShape"/><path fill="#f3fafa" d="M1465.02,876.28l-248.61,71.41c-0.82,0.22-1.52,0.49-2.18,0.92l-526.16,305.72                  c0.65-0.38,1.36-0.65,2.18-0.93L938.86,1182c3-0.82,6.42-0.28,9.93,1.32l526.14-305.77                  C1471.41,875.98,1467.97,875.42,1465.02,876.28z" class="colorfff svgShape"/><path fill="#184b40" d="M688.07,1256.29c-0.67,0-1.33-0.35-1.68-0.97c-0.54-0.93-0.23-2.13,0.7-2.67                  c0.01,0,0.02-0.01,0.02-0.01l526.14-305.71c0.67-0.45,1.52-0.82,2.65-1.12l248.57-71.4                  c3.26-0.95,7.14-0.47,11.26,1.37c0.66,0.3,1.11,0.95,1.15,1.68s-0.34,1.42-0.97,1.79l-526.14,305.77                  c-0.54,0.32-1.2,0.36-1.79,0.09c-3.19-1.46-6.17-1.88-8.61-1.22l-248.58,71.4c-0.53,0.18-1.17,0.41-1.71,0.73                  l-0.02,0.01C688.74,1256.21,688.41,1256.29,688.07,1256.29z M1467.95,877.83c-0.85,0-1.65,0.11-2.39,0.32                  c-0.01,0-0.01,0-0.01,0l-248.61,71.41c-0.73,0.2-1.23,0.4-1.62,0.67l-511.65,297.3l234.65-67.4                  c3.13-0.85,6.59-0.51,10.34,1.02l521.53-303.09C1469.41,877.9,1468.66,877.83,1467.95,877.83z M1465.01,876.28h0.05                  H1465.01z" class="color373b42 svgShape"/><g><path fill="#f3fafa" d="M1736.42,1247.92L1489,890.09c-3.54-5.11-7.72-9.08-11.97-11.53c-0.71-0.4-1.41-0.69-2.11-1                  l-526.14,305.77c0.7,0.32,1.39,0.61,2.09,1.01c4.24,2.45,8.43,6.42,11.97,11.53l247.42,357.77                  c8.76,12.73,10.5,28.12,3.81,34.37c-0.54,0.54-1.14,0.98-1.79,1.36l526.16-305.78c0.65-0.38,1.25-0.82,1.79-1.36                  C1746.92,1275.98,1745.18,1260.59,1736.42,1247.92z" class="colorfff svgShape"/><path fill="#184b40" d="M1212.27,1591.33c-0.67,0-1.33-0.35-1.68-0.97c-0.54-0.93-0.23-2.13,0.7-2.67                  c0.56-0.32,1.01-0.66,1.41-1.06c5.91-5.54,4.05-20.12-4.05-31.88l-247.41-357.77c-3.32-4.8-7.24-8.59-11.33-10.95                  c-0.53-0.31-1.07-0.54-1.59-0.78c-0.67-0.3-1.27-1.02-1.31-1.75c-0.04-0.73,0.18-1.49,0.81-1.86l526.14-305.77                  c0.56-0.31,1.2-0.35,1.78-0.09c0.99,0.44,1.62,0.72,2.26,1.08c4.63,2.67,8.98,6.86,12.61,12.13l247.42,357.83l0,0                  c9.45,13.68,11,29.87,3.53,36.85c-0.56,0.57-1.28,1.11-2.13,1.62l-526.17,305.78                  C1212.94,1591.24,1212.61,1591.33,1212.27,1591.33z M952.83,1183.24c4.23,2.67,8.23,6.63,11.62,11.52l247.41,357.77                  c7.2,10.47,9.82,22.4,7.33,30.56l518.25-301.18c0.56-0.33,1.01-0.67,1.39-1.05c5.94-5.56,4.08-20.11-4.02-31.83                  L1487.39,891.2c-3.31-4.79-7.23-8.58-11.33-10.95c-0.34-0.19-0.67-0.35-1.02-0.5L952.83,1183.24z" class="color373b42 svgShape"/></g><g><path fill="#2acaac" d="M950.88,1184.36c4.22,2.44,8.44,6.41,11.97,11.53l247.4,357.78                  c8.76,12.69,10.49,28.08,3.83,34.35c-3.91,3.74-9.92,3.42-15.97-0.07c-4.17-2.41-8.36-6.35-11.93-11.53                  l-235.45-340.49l-236.61,67.95c-3.61,1.03-7.83,0.1-12.01-2.31c-6.05-3.49-12.01-10.09-15.9-18.32                  c-6.6-13.93-4.79-27.27,4.01-29.82l248.62-71.41C942.42,1181.01,946.66,1181.92,950.88,1184.36z" class="color1fb6ff svgShape"/><path fill="#184b40" d="M1207.12,1592.64c-3.09,0-6.51-1-9.98-3c-4.58-2.64-8.92-6.83-12.56-12.11l-234.66-339.34                  l-235.26,67.56c-4.02,1.15-8.7,0.29-13.53-2.5c-6.67-3.85-12.75-10.84-16.68-19.17                  c-4.49-9.47-5.42-19.02-2.48-25.55c1.61-3.57,4.28-5.98,7.72-6.97l248.62-71.41c4.04-1.15,8.72-0.28,13.54,2.51                  c4.61,2.67,8.97,6.85,12.61,12.11l247.4,357.78c9.44,13.68,11.01,29.88,3.56,36.88                  C1213.2,1591.57,1210.33,1592.64,1207.12,1592.64z M950.74,1233.98c0.63,0,1.23,0.3,1.61,0.84l235.46,340.49                  c3.31,4.81,7.22,8.59,11.3,10.94c5.56,3.21,10.53,3.33,13.64,0.35c5.88-5.54,4-20.11-4.09-31.83l-247.4-357.78                  c-3.25-4.72-7.29-8.6-11.34-10.95c-3.85-2.22-7.58-2.98-10.52-2.14l-248.61,71.4c-2.34,0.68-4.11,2.3-5.24,4.83                  c-2.44,5.42-1.49,13.95,2.45,22.28c3.55,7.53,9.2,14.05,15.11,17.46c3.89,2.25,7.53,2.97,10.5,2.13l236.6-67.95                  C950.38,1234.01,950.55,1233.98,950.74,1233.98z" class="color373b42 svgShape"/></g><g><polygon fill="#f3fafa" points="1393.09 1444.13 1393.09 1811.98 1570.94 1708.55 1570.22 1341.86 1481.39 1291.19" class="colorfff svgShape"/><path fill="#184b40" d="M1393.09,1813.93c-0.34,0-0.67-0.09-0.98-0.26c-0.6-0.35-0.98-0.99-0.98-1.69v-367.85      c0-0.34,0.09-0.68,0.26-0.98l88.3-152.93c0.54-0.93,1.73-1.25,2.66-0.72l88.83,50.67c0.61,0.34,0.98,0.99,0.98,1.69l0.72,366.68      c0,0.7-0.37,1.34-0.97,1.69l-177.85,103.43C1393.77,1813.84,1393.42,1813.93,1393.09,1813.93z M1395.04,1444.65v363.94      l173.95-101.16l-0.72-364.43l-86.16-49.15L1395.04,1444.65z" class="color373b42 svgShape"/></g><g><polygon fill="#184b40" points="1355.67 1444.02 1355.67 1790.37 1393.09 1811.94 1393.09 1422.25" class="color373b42 svgShape"/><path fill="#184b40" d="M1393.1,1813.89c-0.34,0-0.67-0.09-0.98-0.26l-37.43-21.57c-0.6-0.35-0.98-0.99-0.98-1.69v-346.35      c0-0.7,0.37-1.34,0.97-1.69l37.43-21.77c0.61-0.35,1.35-0.35,1.96-0.01c0.6,0.35,0.98,0.99,0.98,1.69v389.69      c0,0.7-0.37,1.34-0.98,1.69C1393.77,1813.81,1393.43,1813.89,1393.1,1813.89z M1357.62,1789.24l33.53,19.32v-382.92l-33.53,19.5      V1789.24z" class="color373b42 svgShape"/></g><g><polygon fill="#f3fafa" points="1481.28 1252.5 1296.6 1145.17 1419.25 1215.07 1603.93 1322.4" class="colorfff svgShape"/><path fill="#184b40" d="M1603.93,1324.35c-0.33,0-0.66-0.08-0.97-0.26l-122.66-69.9c0,0-0.01-0.01-0.02-0.01l-184.68-107.32         c-0.93-0.54-1.24-1.73-0.71-2.66c0.53-0.93,1.74-1.25,2.66-0.72l122.66,69.9l184.7,107.34c0.93,0.54,1.24,1.73,0.71,2.66         C1605.27,1324,1604.6,1324.35,1603.93,1324.35z" class="color373b42 svgShape"/><polygon fill="#f3fafa" points="1359.37 1463.59 1296.6 1145.17 1481.28 1252.5" class="colorfff svgShape"/><path fill="#184b40" d="M1359.37,1465.55c-0.11,0-0.21-0.01-0.32-0.03c-0.8-0.13-1.44-0.75-1.59-1.55l-62.77-318.42         c-0.15-0.75,0.15-1.52,0.78-1.97c0.63-0.45,1.46-0.48,2.12-0.1l184.68,107.32c0.93,0.54,1.24,1.73,0.71,2.66l-121.91,211.1         C1360.7,1465.18,1360.06,1465.55,1359.37,1465.55z M1299.35,1149.03l60.93,309.09l118.34-204.91L1299.35,1149.03z" class="color373b42 svgShape"/><g><polygon fill="#184b40" points="1481.28 1252.5 1603.93 1322.4 1570.22 1341.86 1481.39 1291.19 1393.09 1444.13 1359.37 1463.59" class="color373b42 svgShape"/><path fill="#184b40" d="M1359.37,1465.55c-0.5,0-1.01-0.2-1.38-0.57c-0.62-0.62-0.75-1.59-0.31-2.36l121.91-211.1         c0.54-0.93,1.73-1.25,2.66-0.72l122.66,69.9c0.6,0.35,0.98,0.99,0.98,1.69c0,0.7-0.37,1.35-0.98,1.7l-33.72,19.47         c-0.61,0.35-1.35,0.35-1.94,0l-87.15-49.71l-87.32,151.25c-0.18,0.3-0.42,0.54-0.72,0.71l-33.72,19.47         C1360.04,1465.46,1359.71,1465.55,1359.37,1465.55z M1482,1255.15l-117.29,203.11l26.96-15.57l88.03-152.48         c0.54-0.93,1.73-1.25,2.66-0.72l87.85,50.11l29.8-17.2L1482,1255.15z" class="color373b42 svgShape"/></g></g><g><polygon fill="#f3fafa" points="1523.83 1573.69 1523.83 1735.92 1440.21 1784.19 1440.21 1621.96" class="colorfff svgShape"/><path fill="#184b40" d="M1440.21,1786.15c-0.34,0-0.67-0.09-0.98-0.26c-0.6-0.35-0.98-0.99-0.98-1.69v-162.23       c0-0.7,0.37-1.34,0.98-1.69l83.62-48.28c0.61-0.35,1.34-0.35,1.95,0c0.6,0.35,0.98,0.99,0.98,1.69v162.23       c0,0.7-0.37,1.34-0.98,1.69l-83.62,48.28C1440.88,1786.06,1440.54,1786.15,1440.21,1786.15z M1442.16,1623.09v157.73       l79.71-46.02v-157.72L1442.16,1623.09z" class="color373b42 svgShape"/><g><polygon fill="#184b40" points="1523.83 1735.92 1440.21 1784.19 1440.21 1687.32" class="color373b42 svgShape"/><path fill="#184b40" d="M1440.21,1786.15c-0.34,0-0.67-0.09-0.98-0.26c-0.6-0.35-0.98-0.99-0.98-1.69v-96.88       c0-0.7,0.37-1.34,0.98-1.69c0.61-0.35,1.35-0.35,1.96,0.01l83.62,48.6c0.6,0.35,0.97,0.99,0.97,1.69c0,0.7-0.37,1.34-0.98,1.69       l-83.62,48.28C1440.88,1786.06,1440.54,1786.15,1440.21,1786.15z M1442.16,1690.71v90.1l77.77-44.9L1442.16,1690.71z" class="color373b42 svgShape"/></g></g><g><polygon fill="#f3fafa" points="1040.44 1512.8 1040.44 1749.4 821.45 1622.19 821.45 1385.79" class="colorfff svgShape"/><path fill="#184b40" d="M1040.44,1751.35c-0.34,0-0.68-0.09-0.98-0.26l-218.99-127.2c-0.59-0.35-0.97-0.99-0.97-1.69v-236.4       c0-0.7,0.37-1.34,0.98-1.69c0.61-0.35,1.36-0.35,1.95,0l218.99,127.01c0.6,0.35,0.98,0.99,0.98,1.69v236.6       c0,0.7-0.37,1.34-0.98,1.69C1041.11,1751.26,1040.77,1751.35,1040.44,1751.35z M823.4,1621.07l215.08,124.93v-232.08       L823.4,1389.18V1621.07z" class="color373b42 svgShape"/><polygon fill="#184b40" points="1040.46 1512.79 1040.46 1749.41 821.43 1622.23 821.43 1385.76 847.16 1400.71" class="color373b42 svgShape"/><path fill="#184b40" d="M1040.46,1751.36c-0.34,0-0.68-0.09-0.98-0.26l-219.03-127.18c-0.59-0.35-0.97-0.99-0.97-1.69v-236.47       c0-0.7,0.37-1.34,0.98-1.69c0.61-0.35,1.35-0.35,1.96,0l219.02,127.03c0.6,0.35,0.98,0.99,0.98,1.69v236.62       c0,0.7-0.37,1.34-0.98,1.69C1041.13,1751.27,1040.79,1751.36,1040.46,1751.36z M823.38,1621.11l215.13,124.91v-232.11       l-215.13-124.76V1621.11z" class="color373b42 svgShape"/><g><polygon fill="#2acaac" points="1040.46 1512.79 1040.46 1718.46 847.16 1606.15 847.16 1400.71" class="color1fb6ff svgShape"/><path fill="#184b40" d="M1040.46,1720.41c-0.34,0-0.68-0.09-0.98-0.26l-193.29-112.31c-0.59-0.35-0.97-0.99-0.97-1.69v-205.45        c0-0.7,0.37-1.34,0.98-1.69c0.61-0.35,1.36-0.35,1.95,0l193.29,112.08c0.6,0.35,0.98,0.99,0.98,1.69v205.67        c0,0.7-0.37,1.34-0.98,1.69C1041.13,1720.33,1040.79,1720.41,1040.46,1720.41z M849.12,1605.03l189.39,110.04v-201.16        l-189.39-109.82V1605.03z" class="color373b42 svgShape"/></g></g><g><path fill="#2acaac" d="M1507.77,1433.41c0,16.38-11.44,36.24-25.71,44.46c-14.21,8.17-25.76,1.66-25.81-14.72       c-0.05-16.38,11.44-36.24,25.66-44.46C1496.13,1410.48,1507.72,1417.03,1507.77,1433.41z" class="color1fb6ff svgShape"/><path fill="#184b40" d="M1470.51,1483.35c-2.8,0-5.4-0.66-7.7-1.99c-5.46-3.15-8.48-9.61-8.5-18.21       c-0.05-16.93,11.89-37.63,26.63-46.15c7.54-4.35,14.72-5.01,20.24-1.83c5.48,3.15,8.51,9.63,8.54,18.23c0,0,0,0,0,0.01       c0,17.26-11.71,37.53-26.68,46.15C1478.66,1482.08,1474.39,1483.35,1470.51,1483.35z M1493.49,1417.09       c-3.21,0-6.81,1.11-10.59,3.29c-13.66,7.89-24.73,27.08-24.68,42.76c0.02,7.15,2.35,12.42,6.55,14.84       c4.25,2.46,10.05,1.8,16.33-1.81c13.64-7.85,24.72-27.04,24.72-42.77c-0.02-7.15-2.36-12.43-6.58-14.86       C1497.54,1417.58,1495.61,1417.09,1493.49,1417.09z" class="color373b42 svgShape"/></g></g></g><g><path fill="#184b40" d="M1481.92,1479.82c-1.07,0-1.95-0.87-1.95-1.95v-59.17c0-1.08,0.88-1.95,1.95-1.95c1.07,0,1.95,0.87,1.95,1.95    v59.17C1483.87,1478.95,1482.99,1479.82,1481.92,1479.82z" class="color373b42 svgShape"/></g><g><line x1="1456.26" x2="1507.97" y1="1462.95" y2="1433.1" fill="#f0f2f5"/><path fill="#184b40" d="M1456.26,1464.9c-0.67,0-1.33-0.35-1.69-0.98c-0.53-0.93-0.21-2.13,0.72-2.67l51.71-29.85    c0.91-0.53,2.12-0.22,2.67,0.71c0.53,0.93,0.21,2.13-0.72,2.67l-51.71,29.85C1456.94,1464.82,1456.6,1464.9,1456.26,1464.9z" class="color373b42 svgShape"/></g><g><polygon fill="#2acaac" points="1333.75 556.13 1333.35 710.48 1959.34 1071.9 1959.74 917.55" class="color1fb6ff svgShape"/><path fill="#184b40" d="M1959.34,1073.85c-0.34,0-0.67-0.09-0.98-0.26l-625.99-361.42c-0.6-0.35-0.98-1-0.98-1.7l0.4-154.35     c0-0.7,0.37-1.34,0.98-1.69c0.61-0.34,1.34-0.34,1.95,0l625.99,361.42c0.6,0.35,0.98,1,0.98,1.7l-0.4,154.35     c0,0.7-0.37,1.34-0.98,1.69C1960.01,1073.76,1959.67,1073.85,1959.34,1073.85z M1335.3,709.36l622.09,359.17l0.4-149.85     L1335.7,559.5L1335.3,709.36z" class="color373b42 svgShape"/></g><g><polygon fill="#f3fafa" points="1371.73 617.18 1371.47 709.04 1361.14 703.08 1361.4 611.22" class="colorfff svgShape"/><path fill="#f3fafa" d="M1449.8 662.26l-.26 91.85-10.42-6.01-25.24-61.29c-5.58-13.47-10.89-26.99-14.87-39.32l-.36 0c.59 11.92.74 23.07.69 38.31l-.11 39.28-9.7-5.6.26-91.85 11.3 6.53 25.42 61.19c5.93 14.18 10.54 26.57 14.34 38.2-.68-12.79-.91-24.2-.87-38.41l.11-38.46L1449.8 662.26zM1491.37 684.72c8.19 4.73 14.15 10.32 17.7 14.73l-2.88 8.07c-2.67-3.18-8-9.02-15.21-13.19-10.95-6.32-15.07-1.22-15.08 5.12-.02 8.59 4.86 15.61 15.79 26.84 13.51 13.85 20.44 25.32 20.4 38.82-.04 14.12-9.24 21.1-28.12 10.2-7.65-4.42-16.1-11.86-20.37-17.6l2.61-8.43c4.62 5.95 11.38 12.51 18.5 16.62 10.59 6.12 16.75 3.32 16.78-5.99.02-8.59-4.23-15.97-14.99-27-13.07-12.77-21.06-25.17-21.02-38.16C1465.53 680.46 1475.88 675.78 1491.37 684.72zM1585.28 740.48l-.15 53.5c-.08 28.23-13.11 32.39-30.38 22.42-16.38-9.46-28.72-27.44-28.64-55.88l.15-54.11 10.5 6.06-.15 54.32c-.06 20.66 7.84 33.93 18.52 40.1 11.84 6.84 19.43 2.2 19.49-18.15l.15-54.32L1585.28 740.48zM1648.92 843.92c2.55 14.38 4.48 24.31 6.07 28.81l-10.68-6.17c-1.24-3.28-3-12.28-5.28-25.08-2.28-14.02-6.54-21.19-15.97-27.05l-9.7-5.6-.11 39.79-10.33-5.96.26-90.63c5.26 1.81 12.73 5.41 19.86 9.52 11.04 6.37 18.15 12.84 23.12 20.83 3.99 6.4 6.2 14.03 6.18 21.09-.03 12.17-6.64 16.35-15.11 14.74l0 .41C1643.36 824.62 1647.08 833.33 1648.92 843.92zM1623.97 805.95c11.04 6.37 18 3.43 18.03-7.11.03-11.86-7.43-21.3-18.29-27.77-4.99-2.88-8.55-4.32-10.24-4.79l-.1 33.55L1623.97 805.95M1701.18 807.39l27.07 107.63-11.04-6.37-8.46-33.88-28.4-16.39-8.36 24.17-10.68-6.17 27.41-76.18L1701.18 807.39zM1682.51 850.41l24.12 13.93-7.76-31.02c-1.76-6.96-2.9-13.15-4.14-19.19l-.18-.1c-1.26 4.8-2.52 9.61-4.14 14.31L1682.51 850.41M1800.35 864.65l-.26 91.85-10.5-6.06-25.24-61.29c-5.49-13.41-10.8-26.93-14.87-39.32l-.36 0c.59 11.92.74 23.07.69 38.31l-.11 39.28-9.7-5.6.26-91.85 11.31 6.53 25.5 61.24c5.84 14.13 10.45 26.52 14.25 38.14l.27.05c-.94-12.84-1.18-24.25-1.14-38.46l.11-38.46L1800.35 864.65zM1855.36 894.88c9.97 5.76 16.28 11.86 19.04 15.09l-2.52 8.28c-3.91-4.51-9.51-9.39-16.19-13.24-18.69-10.79-31.2-4.18-31.26 19.96-.06 22.51 11.11 43.4 30.61 54.66 6.32 3.65 12.73 5.81 16.83 5.93l2.11 10.65c-3.75-.01-11.41-2.28-21.11-7.89-22.52-13-39.48-39.18-39.39-69.26C1813.56 890.31 1830.62 880.59 1855.36 894.88z" class="colorfff svgShape"/><polygon fill="#f3fafa" points="1930.4 939.74 1930.37 949.66 1897.53 930.69 1897.44 959.74 1928.51 977.68 1928.48 987.5 1897.42 969.56 1897.32 1002.7 1931.95 1022.7 1931.92 1032.62 1886.97 1006.66 1887.23 914.81" class="colorfff svgShape"/></g><g><path d="M662.59,969.52c74.12,42.79,74.51,112.2,0.84,155.01c-73.67,42.81-193.46,42.79-267.58,0        c-74.15-42.81-74.61-112.22-0.94-155.03C468.58,926.69,588.44,926.71,662.59,969.52z" opacity=".1"/><path fill="#becdcd" d="M339.82,1015.35c-0.06,28.24,18.56,56.53,55.91,78.05c28.91,16.71,64.73,26.88,102.09,30.52        c20.71,2.1,41.92,2.1,62.63,0.12c37.73-3.58,73.85-13.81,102.83-30.64c36.62-21.27,54.93-49.07,54.99-76.94l0.12-68.62        c-0.06,27.93-18.37,55.73-54.99,77c-29.04,16.89-65.22,27.13-102.95,30.64c-20.71,1.97-41.92,1.97-62.63-0.12        c-37.3-3.64-73.12-13.87-101.97-30.52c-37.3-21.45-55.92-49.69-55.92-77.98L339.82,1015.35z" class="colorbec4cd svgShape"/><path fill="#ffbf66" d="M497.82,1055.36v68.55c20.71,2.1,41.92,2.1,62.63,0.12v-68.55       C539.75,1057.46,518.54,1057.46,497.82,1055.36z" class="colordbdee4 svgShape"/><path fill="#184b40" d="M529.69,1127.39c-48.81,0-97.66-10.76-134.94-32.28c-36.77-21.23-56.97-49.57-56.88-79.79l0.12-68.44        c0-0.04,0-0.08,0-0.13c0-1.07,0.88-1.95,1.95-1.95c0,0,0,0,0.01,0c1.07,0,1.94,0.88,1.94,1.95v0c0,0,0,0,0,0.01v0.1        c-0.03,28.73,19.47,55.82,54.93,76.29c73.47,42.42,192.64,42.42,265.62,0c34.76-20.21,53.95-46.95,54.03-75.3        c0-1.07,0.88-1.95,1.95-1.95c0,0,0,0,0.01,0c1.07,0,1.94,0.88,1.94,1.95l-0.12,68.56c-0.08,29.8-19.96,57.74-55.97,78.66        C627.25,1116.63,578.5,1127.39,529.69,1127.39z M341.86,969.51l-0.08,45.82c-0.08,28.77,19.42,55.9,54.93,76.4        c73.47,42.42,192.64,42.42,265.62,0c34.76-20.2,53.95-46.95,54.03-75.3l0.08-45.98c-7.45,21.15-25.3,40.55-52.03,56.09        c-74.09,43.05-194.99,43.04-269.54,0C367.52,1010.76,349.34,991.03,341.86,969.51z" class="color373b42 svgShape"/><path fill="#f3fafa" d="M662.59,869.84c74.12,42.79,74.51,112.2,0.84,155.01c-73.67,42.81-193.46,42.79-267.58,0        c-74.15-42.81-74.61-112.22-0.94-155.03C468.58,827.01,588.44,827.03,662.59,869.84z" class="colorfff svgShape"/><path fill="#184b40" d="M529.82,1058.83c-48.81,0-97.67-10.76-134.95-32.28c-36.64-21.15-56.83-49.39-56.88-79.51        c-0.04-29.89,19.82-57.91,55.94-78.9c74.11-43.06,195.06-43.05,269.64,0.02l0,0c36.59,21.13,56.77,49.34,56.81,79.45        c0.05,29.91-19.83,57.94-55.97,78.94C627.37,1048.07,578.62,1058.83,529.82,1058.83z M528.54,839.7        c-48.11,0-96.15,10.6-132.65,31.81c-34.86,20.26-54.04,47.08-54,75.52c0.05,28.67,19.55,55.71,54.93,76.13        c73.47,42.42,192.64,42.42,265.62,0c34.88-20.27,54.08-47.11,54.03-75.56c-0.04-28.65-19.52-55.67-54.86-76.07        C624.86,850.31,576.67,839.7,528.54,839.7z" class="color373b42 svgShape"/><g><path fill="#184b40" d="M529.69,1127.39c-48.81,0-97.66-10.76-134.94-32.28c-36.77-21.23-56.97-49.57-56.88-79.79l0.12-68.44        c0-0.04,0-0.08,0-0.13c0-1.07,0.88-1.95,1.95-1.95c0,0,0,0,0.01,0c1.07,0,1.94,0.88,1.94,1.95v0c0,0,0,0,0,0.01v0.1        c-0.03,28.73,19.47,55.82,54.93,76.29c73.47,42.42,192.64,42.42,265.62,0c34.76-20.21,53.95-46.95,54.03-75.3        c0-1.07,0.88-1.95,1.95-1.95c0,0,0,0,0.01,0c1.07,0,1.94,0.88,1.94,1.95l-0.12,68.56c-0.08,29.8-19.96,57.74-55.97,78.66        C627.25,1116.63,578.5,1127.39,529.69,1127.39z M341.86,969.51l-0.08,45.82c-0.08,28.77,19.42,55.9,54.93,76.4        c73.47,42.42,192.64,42.42,265.62,0c34.76-20.2,53.95-46.95,54.03-75.3l0.08-45.98c-7.45,21.15-25.3,40.55-52.03,56.09        c-74.09,43.05-194.99,43.04-269.54,0C367.52,1010.76,349.34,991.03,341.86,969.51z" class="color373b42 svgShape"/></g><g><path fill="#184b40" d="M529.69,1127.39c-48.81,0-97.66-10.76-134.94-32.28c-36.77-21.23-56.97-49.57-56.88-79.79l0.12-68.44        c0-0.04,0-0.08,0-0.13c0-1.07,0.88-1.95,1.95-1.95c0,0,0,0,0.01,0c1.07,0,1.94,0.88,1.94,1.95v0c0,0,0,0,0,0.01v0.1        c-0.03,28.73,19.47,55.82,54.93,76.29c73.47,42.42,192.64,42.42,265.62,0c34.76-20.21,53.95-46.95,54.03-75.3        c0-1.07,0.88-1.95,1.95-1.95c0,0,0,0,0.01,0c1.07,0,1.94,0.88,1.94,1.95l-0.12,68.56c-0.08,29.8-19.96,57.74-55.97,78.66        C627.25,1116.63,578.5,1127.39,529.69,1127.39z M341.86,969.51l-0.08,45.82c-0.08,28.77,19.42,55.9,54.93,76.4        c73.47,42.42,192.64,42.42,265.62,0c34.76-20.2,53.95-46.95,54.03-75.3l0.08-45.98c-7.45,21.15-25.3,40.55-52.03,56.09        c-74.09,43.05-194.99,43.04-269.54,0C367.52,1010.76,349.34,991.03,341.86,969.51z" class="color373b42 svgShape"/></g><g><path d="M452.51,908.2c-38.44,22.2-38.6,58.2-0.41,80.4c38.19,22.2,100.3,22.2,138.75,0c38.44-22.2,38.69-58.2,0.5-80.4           C553.16,886.01,490.95,886.01,452.51,908.2z" opacity=".1"/><path fill="#184b40" d="M763.74,361.34l-76.4-44.4c-2.87-1.67-6.74-1.72-11.07,0.07c-24.77,10.11-46.93,9.46-63.74-0.31            l76.4,44.4c16.81,9.77,38.97,10.41,63.74,0.31C757.01,359.62,760.87,359.67,763.74,361.34z" class="color373b42 svgShape"/><path fill="#184b40" d="M718.59,370.6c-11.26,0-21.67-2.61-30.64-7.82l-76.39-44.4c-0.93-0.54-1.24-1.74-0.7-2.67            c0.53-0.93,1.72-1.24,2.67-0.7c16.86,9.8,38.3,9.87,62.02,0.19c4.78-1.97,9.32-1.96,12.79,0.06l76.4,44.4            c0.93,0.54,1.24,1.73,0.7,2.67c-0.54,0.94-1.75,1.24-2.66,0.71l-0.01,0l-0.01-0.01c-2.4-1.38-5.71-1.31-9.34,0.19            C741.32,368.14,729.55,370.6,718.59,370.6z M631.3,325.35l58.61,34.06c16.85,9.79,38.28,9.87,62.02,0.18            c1.07-0.44,2.13-0.78,3.17-1.02l-68.74-39.95c-2.38-1.39-5.71-1.32-9.34,0.18C660.82,325.42,645.19,327.61,631.3,325.35z" class="color373b42 svgShape"/><path fill="#184b40" d="M379.8,360.09l183.09-105.64c5.03-2.86,9.46-3.15,12.71-1.28l76.47,44.44            c-3.25-1.97-7.78-1.67-12.71,1.18L456.27,404.53c-4.1,2.36-7.79,6.1-10.79,10.48l-76.42-44.42            C372.07,366.2,375.75,362.44,379.8,360.09z" class="color373b42 svgShape"/><path fill="#184b40" d="M445.49,416.96c-0.34,0-0.67-0.09-0.98-0.26l-76.43-44.42c-0.46-0.27-0.8-0.73-0.92-1.26            c-0.11-0.53-0.01-1.08,0.3-1.53c3.34-4.88,7.27-8.72,11.37-11.1c0.01,0,0.01,0,0.01,0l183.09-105.63            c5.48-3.12,10.67-3.57,14.66-1.28l76.21,44.29c0.1,0.06,0.2,0.11,0.3,0.17c0.91,0.55,1.21,1.74,0.66,2.66            c-0.55,0.93-1.73,1.23-2.66,0.69l-0.24-0.14c-2.69-1.49-6.5-1.01-10.51,1.32L457.25,406.22c-3.65,2.1-7.16,5.52-10.15,9.9            C446.72,416.66,446.11,416.96,445.49,416.96z M371.9,369.99l73.03,42.44c3.09-4.16,6.65-7.46,10.37-9.6L638.39,297.1            c1.75-1.01,3.48-1.74,5.18-2.18l-68.94-40.06c-2.71-1.56-6.55-1.11-10.76,1.29L380.78,361.78            C377.66,363.59,374.62,366.41,371.9,369.99z" class="color373b42 svgShape"/><path fill="#184b40" d="M267.17,553.23c26.61-19.81,49.96-48.38,67.01-80.02c14.68-27.1,24.54-56.36,27.69-84.25             c0.71-6.26,3.4-12.83,7.19-18.36l76.42,44.42c-3.78,5.52-6.43,12.07-7.15,18.39c-3.25,27.89-13.11,57.05-27.79,84.25             c-17.05,31.53-40.4,60.11-66.91,79.92c-5.13,3.76-9.5,9.32-12.42,15.34l-76.38-44.39             C257.76,562.53,262.11,556.98,267.17,553.23z" class="color373b42 svgShape"/><path fill="#184b40" d="M331.22,614.86c-0.34,0-0.68-0.09-0.98-0.26l-76.38-44.39c-0.88-0.51-1.22-1.62-0.77-2.54             c3.17-6.49,7.76-12.18,12.92-16.01l0,0c25.5-18.98,49.1-47.17,66.46-79.38c14.89-27.5,24.4-56.39,27.47-83.54             c0.73-6.4,3.4-13.23,7.51-19.24c0.57-0.85,1.69-1.1,2.59-0.58l76.43,44.42c0.46,0.27,0.8,0.73,0.92,1.26             c0.11,0.53,0.01,1.08-0.3,1.53c-3.74,5.46-6.17,11.68-6.82,17.5c-3.22,27.6-12.9,56.98-28.01,84.96             c-17.64,32.62-41.59,61.23-67.46,80.56c-4.75,3.48-8.95,8.68-11.84,14.63c-0.24,0.49-0.66,0.86-1.18,1.01             C331.6,614.84,331.41,614.86,331.22,614.86z M257.42,567.77l72.99,42.42c3.1-5.74,7.34-10.72,12.07-14.2             c25.4-18.98,48.97-47.14,66.35-79.27c14.87-27.55,24.4-56.44,27.57-83.55c0.65-5.81,2.88-11.96,6.33-17.51l-73.05-42.45             c-3.2,5.11-5.27,10.72-5.87,15.97c-3.12,27.65-12.77,57.03-27.91,84.96c-17.62,32.69-41.61,61.34-67.56,80.65             c0,0,0,0,0,0C264.09,557.94,260.26,562.51,257.42,567.77z M267.17,553.23h0.05H267.17z" class="color373b42 svgShape"/><g><path fill="#184b40" d="M331.22,612.91c-2.36,4.86-3.78,10.01-3.74,14.81l0.2,71.15c0.2,81.89,19.81,149.39,54.89,197.37            c13.5,18.33,32.03,33.9,53.21,46.22l-76.37-44.44c-21.29-12.32-39.81-27.79-53.21-46.21            c-35.08-47.99-54.69-115.49-54.99-197.28l-0.2-71.24c0-4.76,1.46-9.9,3.83-14.76L331.22,612.91z" class="color373b42 svgShape"/><path fill="#184b40" d="M435.78,944.41c-0.34,0-0.67-0.09-0.98-0.26c-0.08-0.04-0.15-0.09-0.23-0.13l-76.14-44.31            c-22.7-13.13-40.8-28.87-53.81-46.76c-35.93-49.14-55.07-117.75-55.36-198.42l-0.19-71.25c0-4.83,1.39-10.23,4.02-15.62            c0.24-0.49,0.67-0.85,1.19-1.01c0.52-0.15,1.07-0.09,1.55,0.18l76.38,44.39c0.88,0.51,1.22,1.62,0.77,2.54            c-2.36,4.86-3.57,9.68-3.54,13.94l0.19,71.16c0.19,79.85,19.05,147.71,54.52,196.23c12.86,17.46,30.49,32.79,52.44,45.58            l0.18,0.11c0.93,0.54,1.24,1.74,0.7,2.67C437.11,944.07,436.45,944.41,435.78,944.41z M255.72,571.29            c-1.81,4.2-2.75,8.31-2.75,11.99l0.19,71.24c0.29,79.83,19.18,147.65,54.62,196.13c12.69,17.45,30.39,32.82,52.61,45.68            l41.89,24.37c-8.09-7.27-15.21-15.05-21.28-23.31c-35.97-49.19-55.07-117.84-55.27-198.53l-0.19-71.15            c-0.04-4.35,1.05-9.17,3.17-14.02L255.72,571.29z" class="color373b42 svgShape"/></g><g><path fill="#f3fafa" d="M456.24,404.53c-9.19,5.3-16.65,17.58-17.94,28.82c-3.2,27.91-13.07,57.15-27.74,84.3            c-17.05,31.57-40.41,60.12-66.95,79.93c-9.18,6.82-16.2,19.42-16.17,30.12l0.2,71.21c0.23,81.84,19.9,149.34,54.94,197.32            c33.09,45.2,96.62,72.96,156.07,79.05c3.34,0.35,7.12-0.69,10.89-2.87c3.78-2.18,7.55-5.5,10.87-9.7            C619.63,888.12,682.8,787.2,715.52,704c34.72-88.26,53.88-178.18,53.65-260.01l-0.2-71.21            c-0.03-10.7-7.1-15.16-16.29-11.38c-26.5,10.81-50.01,9.32-67.18-2.49c-14.71-10.19-24.78-27.91-28.13-52.05            c-1.35-9.72-8.8-13.39-18.05-8.05L456.24,404.53z" class="colorfff svgShape"/><path fill="#184b40" d="M539.94,977.29c-0.5,0-1.01-0.02-1.5-0.08c-66-6.76-126.33-37.35-157.43-79.84            c-35.97-49.23-55.09-117.86-55.32-198.46l-0.21-71.21c-0.03-11.04,7.1-24.36,16.96-31.69            c25.47-19.01,49.05-47.17,66.4-79.29c14.9-27.58,24.42-56.49,27.52-83.59c1.38-12.03,9.34-24.77,18.9-30.29l0,0            l183.08-105.7c5.11-2.95,10.08-3.52,14.01-1.6c3.74,1.83,6.21,5.76,6.95,11.06c3.19,23.02,12.63,40.55,27.31,50.71            c17.02,11.71,40.22,12.53,65.33,2.28c5.09-2.1,9.82-1.95,13.35,0.41c3.61,2.41,5.62,6.95,5.63,12.77l0.2,71.21            c0.24,80.56-18.36,170.72-53.78,260.73c-30.52,77.59-90.07,176.91-155.41,259.2c-3.4,4.31-7.35,7.83-11.42,10.18            C546.86,976.2,543.24,977.29,539.94,977.29z M456.24,404.53l0.98,1.69c-8.44,4.88-15.75,16.64-16.98,27.36            c-3.16,27.6-12.83,56.99-27.96,85.01c-17.61,32.61-41.58,61.22-67.5,80.56c-8.95,6.65-15.42,18.66-15.39,28.55l0.21,71.21            c0.22,79.78,19.09,147.61,54.57,196.17c30.46,41.62,89.74,71.61,154.68,78.26c2.88,0.3,6.23-0.6,9.73-2.62            c3.64-2.1,7.21-5.29,10.31-9.22c65.11-82.01,124.44-180.95,154.83-258.21c35.23-89.56,53.73-179.22,53.5-259.29            l-0.2-71.21c-0.02-4.48-1.39-7.87-3.89-9.54c-2.42-1.61-5.85-1.62-9.71-0.04c-26.36,10.76-50.87,9.8-69.02-2.68            c-15.6-10.8-25.62-29.26-28.96-53.39c-0.55-3.98-2.25-6.85-4.79-8.09c-2.71-1.33-6.39-0.81-10.34,1.47l-183.08,105.7            L456.24,404.53z" class="color373b42 svgShape"/><g><path fill="#2acaac" d="M532.67,935.78c61.21-77.72,118.72-173.82,147.05-245.85c33.57-85.31,51.19-170.31,50.98-245.82            l-0.11-37.57c-4.03,0.43-8.04,0.65-12,0.65c-20.15,0-39.13-5.73-54.89-16.56c-14.86-10.3-26.37-24.42-34.16-41.73            l-152.52,88.06c-0.25,0.41-0.5,0.93-0.58,1.24c-3.61,31.73-14.72,65.69-32.04,97.75c-20.37,37.71-47.26,69.68-77.78,92.47            c-0.14,0.15-0.47,0.62-0.71,1.06l0.19,69.33c0.21,72.02,16.64,132.44,47.54,174.74            C436.32,904.52,482.32,928.39,532.67,935.78z" class="color1fb6ff svgShape"/></g></g></g><g><path fill="#f3fafa" d="M644.96,604.37c0,61.48-42.94,136-96.47,166.83c-53.34,30.65-96.66,6.24-96.85-55.23      s42.94-136,96.28-166.83C601.27,518.31,644.77,542.9,644.96,604.37z" class="colorfff svgShape"/></g><g><path fill="#184b40" d="M534.71,721.51c-2.15,0-4.32-0.47-6.37-1.46l-28.57-13.82c-3.88-1.88-5.5-6.54-3.63-10.42     c1.88-3.87,6.52-5.51,10.43-3.63l27.85,13.47l52.06-102.64c1.94-3.84,6.65-5.38,10.49-3.43c3.85,1.95,5.38,6.65,3.43,10.49     l-52.41,103.35C545.39,718.53,540.13,721.51,534.71,721.51z" class="color373b42 svgShape"/></g></g><g><path fill="#184b40" d="M937.88,1662.27c-1.07,0-1.95-0.87-1.95-1.95v-205.56c0-1.08,0.88-1.95,1.95-1.95     c1.07,0,1.95,0.87,1.95,1.95v205.56C939.83,1661.4,938.95,1662.27,937.88,1662.27z" class="color373b42 svgShape"/></g><g><path fill="#f3fafa" d="M1886.3,2201.46c-14.11-8.15-14.19-21.36-0.17-29.51c14.01-8.15,36.83-8.14,50.93,0      c14.11,8.15,14.18,21.36,0.16,29.5C1923.2,2209.61,1900.41,2209.61,1886.3,2201.46z" class="colorfff svgShape"/><path fill="#ffbf66" d="M1911.79,2209.48c-9.57,0-19.15-2.11-26.46-6.33l0,0c-7.48-4.32-11.6-10.18-11.61-16.5      c-0.01-6.28,4.05-12.1,11.42-16.39c14.54-8.45,38.26-8.44,52.89,0c7.47,4.31,11.58,10.17,11.6,16.48      c0.01,6.28-4.05,12.1-11.43,16.39C1930.93,2207.37,1921.36,2209.48,1911.79,2209.48z M1911.55,2167.78      c-8.86,0-17.72,1.95-24.44,5.86c-6.13,3.56-9.5,8.17-9.49,13c0.01,4.87,3.44,9.53,9.66,13.13l0,0c13.54,7.82,35.5,7.82,48.96,0      c6.13-3.56,9.5-8.18,9.5-13.01c-0.01-4.87-3.44-9.52-9.65-13.11C1929.31,2169.73,1920.42,2167.78,1911.55,2167.78z" class="colordbdee4 svgShape"/><g><path fill="#2acaac" d="M1911.59,2177.4c5.5,0,10.82,1.25,14.6,3.44c3.04,1.75,4.78,3.91,4.78,5.91c0,1.98-1.71,4.11-4.69,5.84      c-3.75,2.18-9.05,3.43-14.54,3.43c-5.49,0-10.81-1.25-14.59-3.43c-3.04-1.75-4.78-3.91-4.79-5.92c0-1.98,1.7-4.11,4.68-5.84      C1900.8,2178.65,1906.1,2177.4,1911.59,2177.4z" class="color1fb6ff svgShape"/></g><g><path fill="#184b40" d="M1787.41,2106.7c5.91,0,11.62,1.34,15.68,3.69c3.26,1.88,5.13,4.2,5.14,6.35c0,2.12-1.83,4.41-5.03,6.27     c-4.03,2.34-9.72,3.68-15.62,3.68c-5.9,0-11.61-1.34-15.67-3.69c-3.26-1.88-5.14-4.2-5.14-6.35c0-2.12,1.83-4.41,5.03-6.27     C1775.82,2108.04,1781.51,2106.7,1787.41,2106.7z" class="color373b42 svgShape"/></g></g></svg>